<svg xmlns="http://www.w3.org/2000/svg" viewBox="0 0 1148.72 507.6"><defs><style>.cls-1{fill:#ffb900;}.cls-2{fill:#ff5b3d;}.cls-3{fill:#ff003c;}.cls-4{fill:#313131;}.cls-5{fill:#00aeef;}.cls-6{fill:#abc500;}</style></defs><g id="Layer_2" data-name="Layer 2"><g id="Layer_1-2" data-name="Layer 1"><path class="cls-1" d="M534.82,439.18q-7.85-12.51-23-12.51a28.17,28.17,0,0,0-20.75,8.64,30.33,30.33,0,0,0,0,42.28,28.17,28.17,0,0,0,20.75,8.64q15.11,0,23-12.5v11.14h7.5V428h-7.5Zm-6.47,33.24a22.63,22.63,0,0,1-31.83,0,22.92,22.92,0,0,1,0-31.94,22.66,22.66,0,0,1,31.83,0,22.94,22.94,0,0,1,0,31.94Z"/><path class="cls-1" d="M583.84,426.67q-12.72,0-19.09,10.23V428h-7.51v56.83h7.51V455.09q0-10.8,5.11-16t13.3-5.17q7.38,0,11.42,4.2c2.69,2.8,4,6.75,4,11.82v34.9h7.5V450q0-10.68-6-17T583.84,426.67Z"/><path class="cls-2" d="M669.05,439.18q-7.83-12.51-23-12.51a28.17,28.17,0,0,0-20.74,8.64,30.33,30.33,0,0,0,0,42.28,28.17,28.17,0,0,0,20.74,8.64q15.12,0,23-12.5V507.6h7.5V428h-7.5Zm-6.48,33.24a22.62,22.62,0,0,1-31.82,0,22.92,22.92,0,0,1,0-31.94,22.65,22.65,0,0,1,31.82,0,22.92,22.92,0,0,1,0,31.94Z"/><path class="cls-2" d="M781,426.67q-13.07,0-21.37,8.53t-8.29,21.25q0,13,8.41,21.37t21.82,8.41a30.55,30.55,0,0,0,14.78-3.52,27.11,27.11,0,0,0,10.23-9.55L800,469.3a18.05,18.05,0,0,1-7.11,7,22.47,22.47,0,0,1-11.2,2.67,23.38,23.38,0,0,1-15.28-5.06A20.35,20.35,0,0,1,759,460.2h49.89c.15-1.51.23-2.69.23-3.52a31,31,0,0,0-7.79-21.09Q793.58,426.68,781,426.67ZM759,452.93A21.26,21.26,0,0,1,781,434a20,20,0,0,1,13.53,5q5.81,5,6.93,14Z"/><path class="cls-3" d="M847.06,455.23l-9.78-2.79a30.84,30.84,0,0,1-8.34-3.63,6.86,6.86,0,0,1-3.46-6,7.35,7.35,0,0,1,3.53-6.54,15,15,0,0,1,8.41-2.29q10.33,0,13.64,7.95l6.25-3.63a19.21,19.21,0,0,0-7.73-8.47,23.29,23.29,0,0,0-12.16-3.13q-8.42,0-13.93,4.66A14.59,14.59,0,0,0,818,442.92a13.05,13.05,0,0,0,3.41,9.38,18.06,18.06,0,0,0,8.3,5l9.77,2.79a29.84,29.84,0,0,1,8.3,3.67,7,7,0,0,1,3.41,6.13,7.43,7.43,0,0,1-3.75,6.87A18,18,0,0,1,838.1,479a18.38,18.38,0,0,1-9.83-2.56,13.33,13.33,0,0,1-5.74-7l-6.37,3.75a19.47,19.47,0,0,0,8,9.43,25.43,25.43,0,0,0,13.92,3.64q9.09,0,14.83-4.55a14.37,14.37,0,0,0,5.74-11.82,13.6,13.6,0,0,0-3.36-9.57A17.59,17.59,0,0,0,847.06,455.23Z"/><path class="cls-3" d="M896,426.67q-13.08,0-21.37,8.53t-8.3,21.25q0,13,8.41,21.37t21.82,8.41a30.52,30.52,0,0,0,14.78-3.52,27,27,0,0,0,10.23-9.55L915,469.3a18,18,0,0,1-7.11,7A22.43,22.43,0,0,1,896.67,479a23.39,23.39,0,0,1-15.29-5.06,20.39,20.39,0,0,1-7.33-13.7H924c.15-1.51.22-2.69.22-3.52a31,31,0,0,0-7.78-21.09Q908.61,426.68,896,426.67Zm-21.94,26.26A21.26,21.26,0,0,1,896,434a20,20,0,0,1,13.52,5q5.81,5,6.93,14Z"/><path class="cls-3" d="M970.32,460.29a17.59,17.59,0,0,0-8.25-5.06l-9.78-2.79a31.12,31.12,0,0,1-8.34-3.63,6.85,6.85,0,0,1-3.45-6,7.34,7.34,0,0,1,3.52-6.54,15.06,15.06,0,0,1,8.41-2.29q10.34,0,13.64,7.95l6.25-3.63a19.21,19.21,0,0,0-7.73-8.47,23.29,23.29,0,0,0-12.16-3.13q-8.41,0-13.93,4.66A14.59,14.59,0,0,0,933,442.92a13.05,13.05,0,0,0,3.41,9.38,18.11,18.11,0,0,0,8.3,5l9.77,2.79a29.71,29.71,0,0,1,8.3,3.67,7,7,0,0,1,3.41,6.13,7.43,7.43,0,0,1-3.75,6.87,18,18,0,0,1-9.32,2.22,18.41,18.41,0,0,1-9.83-2.56,13.33,13.33,0,0,1-5.74-7l-6.37,3.75a19.47,19.47,0,0,0,8,9.43,25.43,25.43,0,0,0,13.92,3.64q9.09,0,14.83-4.55a14.37,14.37,0,0,0,5.74-11.82A13.6,13.6,0,0,0,970.32,460.29Z"/><path class="cls-4" d="M79.56,339.21q-30.4,0-50.72-13.21A72,72,0,0,1,0,290.05l39.21-22.73Q51.15,294.89,81,294.89q27,0,27-16.2,0-8.81-8.67-13.78T66.78,253.4a146.63,146.63,0,0,1-21.88-7.67,91.55,91.55,0,0,1-18.33-11.22A45,45,0,0,1,12.93,217a58.69,58.69,0,0,1-4.69-24.15q0-27.57,19.75-44t47-16.48q24.44,0,43.18,11.51t29.56,33.39L109.4,199.7Q104,188.33,96,182.5t-21-5.82q-10.24,0-15.77,4.4T53.7,191.74q0,7.39,7,12.78t28.84,11.94q11.92,3.69,18.47,6A132.94,132.94,0,0,1,124.6,230q10.08,5.27,15.34,11.09a55.87,55.87,0,0,1,9.38,15.34,54.42,54.42,0,0,1,4.12,21.74q0,28.41-20.46,44.75T79.56,339.21Z"/><path class="cls-4" d="M271.22,193.16h42.62V335.23H271.22V321.88q-12.8,17.34-40.63,17.33-22.74,0-37.94-15.62t-15.2-43.2V193.16h42.62v81q0,12.51,7,19.18T244.79,300q12.22,0,19.33-7.39t7.1-21.88Z"/><path class="cls-4" d="M506.55,189.18q24.44,0,39.21,16.06T560.54,248v87.23H517.92V251.69q0-10.78-5.26-17t-15.2-6.26q-10.51,0-16.34,7.11t-5.82,19.6v80.13H432.67V251.69q0-10.78-5.25-17t-15.21-6.26q-10.51,0-16.34,7.11t-5.82,19.6v80.13H347.43V193.16h42.62v13.07q11.64-17.05,38.08-17,24.72,0,37.22,18.75Q478.42,189.2,506.55,189.18Z"/><path class="cls-4" d="M630.33,281.25q7.38,19.89,34.09,19.89,17.34,0,27.28-10.8L725.8,310q-21,29.26-61.94,29.26-35.8,0-57.26-21.31t-21.45-53.7q0-32.12,21.17-53.56t54.41-21.46q31,0,51.57,21.46t20.61,53.56a81.11,81.11,0,0,1-1.71,17.05Zm-.85-31.83h61.09Q684.32,227,660.45,227,635.73,227,629.48,249.42Z"/><path class="cls-4" d="M918.42,189.18q24.44,0,39.21,16.06T972.41,248v87.23H929.79V251.69q0-10.78-5.26-17t-15.2-6.26q-10.51,0-16.34,7.11t-5.82,19.6v80.13H844.54V251.69q0-10.78-5.25-17t-15.21-6.26q-10.51,0-16.34,7.11t-5.82,19.6v80.13H759.3V193.16h42.62v13.07q11.64-17.05,38.08-17,24.72,0,37.22,18.75Q890.28,189.2,918.42,189.18Z"/><path class="cls-2" d="M732,457.81q0,10.8-5.11,16T713.63,479c-4.92,0-8.74-1.4-11.42-4.21s-4-6.74-4-11.82V428h-7.5v34.89q0,10.68,6,17T713,486.23q12.72,0,19.09-10.23v8.87h7.5V428H732Z"/><path class="cls-5" d="M30.6,426.67q-15.12,0-23,12.51V428H.14V507.6h7.5V473.73q7.83,12.5,23,12.5a28.17,28.17,0,0,0,20.74-8.64,30.33,30.33,0,0,0,0-42.28A28.17,28.17,0,0,0,30.6,426.67Zm15.34,45.75A21.52,21.52,0,0,1,30,479a21.51,21.51,0,0,1-15.91-6.54,22.92,22.92,0,0,1,0-31.94A21.54,21.54,0,0,1,30,434a21.55,21.55,0,0,1,15.91,6.53,22.92,22.92,0,0,1,0,31.94Z"/><path class="cls-5" d="M98,426.67q-13.07,0-21.37,8.53t-8.3,21.25q0,13,8.41,21.37t21.83,8.41a30.48,30.48,0,0,0,14.77-3.52,26.82,26.82,0,0,0,10.23-9.55L117,469.3a18,18,0,0,1-7.1,7A22.5,22.5,0,0,1,98.72,479a23.36,23.36,0,0,1-15.28-5.06,20.35,20.35,0,0,1-7.33-13.7H126c.15-1.51.23-2.69.23-3.52a31,31,0,0,0-7.79-21.09Q110.66,426.68,98,426.67ZM76.11,452.93A21.26,21.26,0,0,1,98,434a20.06,20.06,0,0,1,13.53,5q5.79,5,6.93,14Z"/><path class="cls-5" d="M145,437.47V428h-7.5v56.83H145v-31.6q0-9.78,5.12-14.32a18.62,18.62,0,0,1,12.84-4.55v-7.27Q150.21,427.13,145,437.47Z"/><polygon class="cls-6" points="210.66 405.3 202.71 405.3 202.71 484.87 247.04 484.87 247.04 477.37 210.66 477.37 210.66 405.3"/><path class="cls-6" d="M280.49,426.67q-13.08,0-21.37,8.53t-8.3,21.25q0,13,8.41,21.37t21.83,8.41a30.51,30.51,0,0,0,14.77-3.52,27,27,0,0,0,10.23-9.55l-6.59-3.86a18,18,0,0,1-7.11,7A22.43,22.43,0,0,1,281.17,479a23.39,23.39,0,0,1-15.29-5.06,20.39,20.39,0,0,1-7.33-13.7h49.9c.15-1.51.22-2.69.22-3.52a31,31,0,0,0-7.78-21.09Q293.11,426.68,280.49,426.67Zm-21.94,26.26a21.26,21.26,0,0,1,21.94-19A20,20,0,0,1,294,439q5.81,5,6.93,14Z"/><path class="cls-6" d="M346.57,455.23l-9.78-2.79a31.12,31.12,0,0,1-8.34-3.63,6.85,6.85,0,0,1-3.45-6,7.34,7.34,0,0,1,3.52-6.54,15.06,15.06,0,0,1,8.41-2.29q10.33,0,13.64,7.95l6.25-3.63a19.21,19.21,0,0,0-7.73-8.47,23.27,23.27,0,0,0-12.16-3.13q-8.42,0-13.92,4.66a14.57,14.57,0,0,0-5.52,11.59,13.05,13.05,0,0,0,3.41,9.38,18.11,18.11,0,0,0,8.3,5l9.77,2.79a29.58,29.58,0,0,1,8.3,3.67,7,7,0,0,1,3.41,6.13,7.43,7.43,0,0,1-3.75,6.87,18,18,0,0,1-9.32,2.22,18.41,18.41,0,0,1-9.83-2.56,13.33,13.33,0,0,1-5.74-7l-6.37,3.75a19.47,19.47,0,0,0,8,9.43,25.43,25.43,0,0,0,13.92,3.64q9.09,0,14.83-4.55a14.38,14.38,0,0,0,5.75-11.82,13.6,13.6,0,0,0-3.37-9.57A17.59,17.59,0,0,0,346.57,455.23Z"/><polygon class="cls-1" points="400.24 484.87 408.19 484.87 408.19 449.63 443.43 449.63 443.43 442.13 408.19 442.13 408.19 412.81 445.13 412.81 445.13 405.3 400.24 405.3 400.24 484.87"/><path class="cls-1" d="M461.57,437.47V428h-7.5v56.83h7.5v-31.6q0-9.78,5.11-14.32a18.63,18.63,0,0,1,12.85-4.55v-7.27Q466.8,427.13,461.57,437.47Z"/><path class="cls-4" d="M1057.56,10.28A80.87,80.87,0,1,1,1013.46,159l-32.38,8.67,8.68-32.38a80.88,80.88,0,0,1,67.8-125m0-10.28h0a91.15,91.15,0,0,0-90.71,82.17,91.51,91.51,0,0,0,11.83,54.69L971.15,165l-4.61,17.21,17.2-4.61,28.11-7.53A91.16,91.16,0,1,0,1057.56,0Z"/><circle class="cls-5" cx="1023.48" cy="91" r="14.54"/><circle class="cls-3" cx="1091.94" cy="91" r="14.54"/><circle class="cls-1" cx="1057.71" cy="91" r="14.54"/><circle class="cls-6" cx="1057.71" cy="56.89" r="14.54"/><circle class="cls-2" cx="1057.71" cy="125.11" r="14.54"/></g></g></svg>